<svg xmlns="http://www.w3.org/2000/svg" viewBox="0 0 200 200"><defs><linearGradient id="phantom" x1="0%" y1="0%" x2="100%" y2="100%"><stop offset="0%" style="stop-color:#AB9FF2;stop-opacity:1" /><stop offset="100%" style="stop-color:#6D63D0;stop-opacity:1" /></linearGradient></defs><circle cx="100" cy="100" r="100" fill="url(#phantom)"/><path fill="#fff" d="M100 50c-18 0-33 13-33 30 0 10 4 19 10 26l-12 26c-2 4 0 8 4 10s8 0 10-4l11-24c2 1 5 1 10 1s8 0 10-1l11 24c2 4 6 6 10 4s6-6 4-10l-12-26c6-7 10-16 10-26 0-17-15-30-33-30z"/></svg>
