<svg xmlns="http://www.w3.org/2000/svg" viewBox="0 0 256 256">
  <defs>
    <linearGradient id="hx5" x1="0" y1="0" x2="1" y2="1">
      <stop offset="0" stop-color="#e879f9"/><stop offset="1" stop-color="#7e22ce"/>
    </linearGradient>
    <linearGradient id="bolt5" x1="0" y1="0" x2="0" y2="1">
      <stop offset="0" stop-color="#fef9c3"/><stop offset="0.5" stop-color="#fde047"/><stop offset="1" stop-color="#f97316"/>
    </linearGradient>
    <filter id="sh5" x="-30%" y="-30%" width="160%" height="160%">
      <feDropShadow dx="0" dy="6" stdDeviation="7" flood-color="#581c87" flood-opacity="0.3"/>
    </filter>
  </defs>
  <polygon points="128,24 212,73 212,177 128,226 44,177 44,73" fill="url(#hx5)" filter="url(#sh5)"/>
  <polygon points="128,42 196,82 196,168 128,208 60,168 60,82" fill="none" stroke="#fae8ff" stroke-opacity="0.5" stroke-width="5"/>
  <path d="M130 50 L84 130 H110 L98 190 L154 104 H124 L142 50 Z" fill="url(#bolt5)"/>
  <path d="M168 74 L146 114 H160 L152 148 L182 102 H166 L176 74 Z" fill="#fef3c7" opacity="0.95"/>
  <rect x="150" y="164" width="66" height="44" rx="22" fill="#ffffff" filter="url(#sh5)"/>
  <text x="183" y="196" font-family="Arial, Helvetica, sans-serif" font-size="30" font-weight="bold" text-anchor="middle" fill="#7e22ce">5x</text>
</svg>
